<svg width="115" height="117" viewBox="0 0 115 117" fill="none" xmlns="http://www.w3.org/2000/svg">
<path d="M114.833 59.3115C101.533 61.3415 85.833 63.4715 75.463 72.7715C63.403 83.5915 61.123 101.042 58.573 116.192L56.383 116.222C54.023 100.282 50.873 80.2115 36.833 70.2315C31.653 66.5515 22.933 63.2815 16.683 61.9115C12.743 61.0415 4.08303 60.9115 1.06303 59.5615C-0.166971 59.0115 -0.107005 58.1815 0.152995 56.7115C0.282995 56.0015 12.653 54.8915 14.443 54.5015C22.533 52.7515 32.403 48.9715 38.783 43.6215C50.793 33.5515 54.203 15.4215 56.393 0.661542C57.043 -0.728458 59.043 0.231542 59.373 2.06154C60.213 6.68154 60.263 11.7415 61.373 16.5315C66.163 37.2615 75.973 48.5615 96.983 53.5815C101.023 54.5415 110.853 55.0815 113.553 56.5015C115.073 57.3015 114.983 57.6915 114.843 59.3215L114.833 59.3115Z" fill="#121212"/>
</svg>
