<svg width="1000" height="343" viewBox="0 0 1000 343" fill="none" xmlns="http://www.w3.org/2000/svg">
<g clip-path="url(#clip0_502_409)">
<path d="M828.07 85.76C846.43 84.2 868.42 88.74 883.62 99.45C884.52 100.09 886.95 101.06 886.66 102.32L870.58 119.01C838.91 100.02 797.68 109.78 779.86 142.41C762.94 173.4 773.38 211.69 804.01 229.12C862.89 262.61 926.23 194.22 888.79 136.95C887.42 134.85 882.72 130.4 882.9 128.61C883.09 126.69 896.17 114.18 898.3 111.74C931.35 144.59 931.44 199.84 899.73 233.69C856.14 280.21 779.74 266.09 754.88 207.83C731.78 153.7 769.65 90.7 828.08 85.75L828.07 85.76Z" fill="#121212"/>
<path d="M28.86 87.0293L96.31 207.579L162.27 87.0293H191.13L95.56 261.459L0 87.0293H28.86Z" fill="#121212"/>
<path d="M370.26 88.1509L372.85 86.9909C402.03 89.3409 436.47 83.6109 464.98 87.8809C517.79 95.7909 528.4 166.581 484.13 192.161C480.34 194.351 476.57 195.161 473.15 196.911C472.48 197.251 471.91 196.741 472.17 198.211L516.41 258.121L515.29 259.971H486.81C480.76 252.731 475.23 245.031 469.64 237.451C462.38 227.611 453.21 211.691 445.23 203.441C441.24 199.321 441.87 201.541 437.38 201.621C435.44 201.651 431.02 202.061 429.83 200.861L420.48 176.131H459.08C460.89 176.131 467.15 173.631 469.1 172.671C491.06 161.791 493.75 128.471 471.94 116.121C470.07 115.061 462.22 111.751 460.57 111.751H370.25V88.1709L370.26 88.1509Z" fill="#121212"/>
<path d="M608.61 234.519H698.18L699.3 235.639V258.849L583.23 259.119C583.04 256.779 582.48 254.509 582.34 252.149C579.24 200.599 584.76 145.979 582.34 94.1093L584.25 87.0293H607.48L608.6 88.1493V234.519H608.61Z" fill="#121212"/>
<path d="M259.33 259.229V87.0293H283.69L284.81 88.1493V258.849C284.15 259.919 283.32 259.879 282.22 260.009C280.46 260.219 259.32 260.369 259.32 259.219L259.33 259.229Z" fill="#121212"/>
<path d="M999.11 59.3194C985.81 61.3494 970.11 63.4794 959.74 72.7794C947.68 83.5993 945.4 101.049 942.85 116.199L940.66 116.229C938.3 100.289 935.15 80.2193 921.11 70.2393C915.93 66.5593 907.21 63.2894 900.96 61.9194C897.02 61.0494 888.36 60.9194 885.34 59.5694C884.11 59.0194 884.17 58.1894 884.43 56.7194C884.56 56.0094 896.93 54.8994 898.72 54.5094C906.81 52.7594 916.68 48.9794 923.06 43.6294C935.07 33.5594 938.48 15.4294 940.67 0.669354C941.32 -0.720646 943.32 0.239354 943.65 2.06935C944.49 6.68935 944.54 11.7494 945.65 16.5394C950.44 37.2694 960.25 48.5694 981.26 53.5894C985.3 54.5494 995.13 55.0894 997.83 56.5094C999.35 57.3094 999.26 57.6994 999.12 59.3294L999.11 59.3194Z" fill="#22D3EE"/>
<path d="M394.99 176.119C394.28 185.569 397.63 193.099 402.49 200.819L395.7 202.009L395 259.969H371.39L370.27 258.849V176.119H395H394.99Z" fill="#121212"/>
</g>
<defs>
<clipPath id="clip0_502_409">
<rect width="999.18" height="342.23" fill="white"/>
</clipPath>
</defs>
</svg>
