<svg width="1000" height="343" viewBox="0 0 1000 343" fill="none" xmlns="http://www.w3.org/2000/svg">
<g clip-path="url(#clip0_502_356)">
<path d="M828.07 85.76C846.43 84.2 868.42 88.74 883.62 99.45C884.52 100.09 886.95 101.06 886.66 102.32L870.58 119.01C838.91 100.02 797.68 109.78 779.86 142.41C762.94 173.4 773.38 211.69 804.01 229.12C862.89 262.61 926.23 194.22 888.79 136.95C887.42 134.85 882.72 130.4 882.9 128.61C883.09 126.69 896.17 114.18 898.3 111.74C931.35 144.59 931.44 199.84 899.73 233.69C856.14 280.21 779.74 266.09 754.88 207.83C731.78 153.7 769.65 90.7 828.08 85.75L828.07 85.76Z" fill="#121212"/>
<path d="M28.86 87.0293L96.31 207.579L162.27 87.0293H191.13L95.56 261.459L0 87.0293H28.86Z" fill="#121212"/>
<path d="M370.26 88.1509L372.85 86.9909C402.03 89.3409 436.47 83.6109 464.98 87.8809C517.79 95.7909 528.4 166.581 484.13 192.161C480.34 194.351 476.57 195.161 473.15 196.911C472.48 197.251 471.91 196.741 472.17 198.211L516.41 258.121L515.29 259.971H486.81C480.76 252.731 475.23 245.031 469.64 237.451C462.38 227.611 453.21 211.691 445.23 203.441C441.24 199.321 441.87 201.541 437.38 201.621C435.44 201.651 431.02 202.061 429.83 200.861L420.48 176.131H459.08C460.89 176.131 467.15 173.631 469.1 172.671C491.06 161.791 493.75 128.471 471.94 116.121C470.07 115.061 462.22 111.751 460.57 111.751H370.25V88.1709L370.26 88.1509Z" fill="#121212"/>
<path d="M608.61 234.519H698.18L699.3 235.639V258.849L583.23 259.119C583.04 256.779 582.48 254.509 582.34 252.149C579.24 200.599 584.76 145.979 582.34 94.1093L584.25 87.0293H607.48L608.6 88.1493V234.519H608.61Z" fill="#121212"/>
<path d="M259.33 259.229V87.0293H283.69L284.81 88.1493V258.849C284.15 259.919 283.32 259.879 282.22 260.009C280.46 260.219 259.32 260.369 259.32 259.219L259.33 259.229Z" fill="#121212"/>
<path d="M999.11 59.3194C985.81 61.3494 970.11 63.4794 959.74 72.7794C947.68 83.5993 945.4 101.049 942.85 116.199L940.66 116.229C938.3 100.289 935.15 80.2193 921.11 70.2393C915.93 66.5593 907.21 63.2894 900.96 61.9194C897.02 61.0494 888.36 60.9194 885.34 59.5694C884.11 59.0194 884.17 58.1894 884.43 56.7194C884.56 56.0094 896.93 54.8994 898.72 54.5094C906.81 52.7594 916.68 48.9794 923.06 43.6294C935.07 33.5594 938.48 15.4294 940.67 0.669354C941.32 -0.720646 943.32 0.239354 943.65 2.06935C944.49 6.68935 944.54 11.7494 945.65 16.5394C950.44 37.2694 960.25 48.5694 981.26 53.5894C985.3 54.5494 995.13 55.0894 997.83 56.5094C999.35 57.3094 999.26 57.6994 999.12 59.3294L999.11 59.3194Z" fill="#22D3EE"/>
<path d="M394.99 176.119C394.28 185.569 397.63 193.099 402.49 200.819L395.7 202.009L395 259.969H371.39L370.27 258.849V176.119H395H394.99Z" fill="#121212"/>
<path d="M693.31 333.34C694.34 333.56 694.12 332.56 694.41 331.85C695.49 329.27 698.3 318.15 699.32 317.27C700.82 315.98 702.91 316.12 703.7 318.09L709.04 334.08C710.25 331.09 712.47 317.06 714.8 316.24C715.77 315.9 717.01 316.16 718.05 316.12L711.34 341.23C709.99 341.79 707.45 342.05 706.42 340.84C704.65 338.75 703.7 327.95 701.18 325.11C699.07 328.29 697.69 345.66 691.16 341.48C689.78 334.11 686.01 326.36 684.63 319.14C684.1 316.37 685.55 315.18 688.08 316.48C689.94 317.44 692.22 330.46 693.32 333.34H693.31Z" fill="#121212"/>
<path d="M362.78 333.35C364.72 333.57 363.97 333.35 364.29 332.26C365.12 329.42 367.51 317.5 369.5 316.49C370.64 315.91 372.06 315.78 372.9 316.88C375.1 321.43 375.24 328.12 377.59 332.4C378.07 333.27 377.57 333.66 379.26 333.36C379.07 330.73 382.73 316.75 384.26 316.24L387.5 316.13L381.39 340.34C373.34 346.4 374.33 329.48 370.64 325.12C367.05 330.09 369.02 343.46 360.6 341.51L353.9 318.56L354.49 316.47C360.21 312.63 360.96 330.51 362.78 333.35Z" fill="#121212"/>
<path d="M666.82 338.339C654.92 350.239 636.05 332.209 647.94 319.849C659.83 307.489 678.47 326.689 666.82 338.339ZM654.86 320.779C646.21 322.759 648.15 338.699 658.28 337.679C668.41 336.659 667.6 317.869 654.86 320.779Z" fill="#121212"/>
<path d="M323.59 316.31C344.14 312.89 345.3 344.24 324.14 341.6C310.45 339.89 310.73 318.45 323.59 316.31ZM323.57 320.78C317.54 322.57 316.48 334.07 323.66 336.86C337.47 342.24 338.8 316.25 323.57 320.78Z" fill="#121212"/>
<path d="M509.67 341.579V317.249C512.98 315.149 519.63 315.899 523.32 317.089C532.85 320.149 534.52 333.569 526.54 339.349C525.81 339.879 522.57 341.589 522.04 341.589H509.67V341.579ZM514.17 320.619V337.089C531.2 340.369 530.99 317.569 514.17 320.619Z" fill="#121212"/>
<path d="M592.871 328.111C596.551 344.251 571.621 346.991 569.071 332.051C566.501 317.001 583.171 310.251 592.111 321.741C588.321 325.901 587.341 321.811 584.671 320.951C571.371 316.661 569.331 337.931 582.021 337.721C583.921 337.691 588.841 335.381 588.361 333.021C587.881 330.661 579.971 333.851 581.631 328.111H592.871Z" fill="#121212"/>
<path d="M439.221 317.251C439.921 314.981 451.131 316.261 453.461 317.251C460.401 320.201 458.671 329.031 452.781 332.221L457.961 341.581C451.021 344.361 450.001 331.421 445.611 331.801C441.961 332.121 444.801 338.891 443.401 340.891L439.231 341.591V317.261L439.221 317.251ZM443.711 328.111C456.491 330.181 456.491 318.541 443.711 320.621V328.111Z" fill="#121212"/>
<path d="M610.11 316.881C622.25 312.671 636.85 321.471 623.63 332.221L628.85 341.211C622.27 344.331 622.02 334.891 618.78 332.551C617.69 331.761 614.92 330.841 614.59 332.961C614.36 334.481 614.91 341.291 614.59 341.601H610.09V316.891L610.11 316.881ZM614.6 328.111C627.08 330.381 627.09 318.341 614.6 320.621V328.111Z" fill="#121212"/>
<path d="M772.75 331.099L772.42 340.879C771.63 341.999 768.55 341.919 767.83 340.879L768.25 316.119L772.64 316.979L772.75 326.599H783.99L784.32 316.819L788.49 316.119V341.579H783.99V331.099H772.75Z" fill="#121212"/>
<path d="M421.23 316.129V320.619H409.24V326.609L418.5 326.719C424.21 333.649 410.22 330.119 409.24 331.099V337.089H421.24V341.579H404.75V316.119H421.24L421.23 316.129Z" fill="#121212"/>
<path d="M491.68 316.129V320.619H480.81C479.29 321.479 479.14 325.409 480.39 326.279L489.69 326.719C495.41 333.719 480.63 330.139 479.68 331.099L480.01 336.389C481.31 338.259 489.72 336.059 491.71 337.429C493.18 338.439 492.27 341.579 491.3 341.579H475.93C474.65 335.959 475.71 330.919 475.86 325.559C475.9 324.169 473.77 316.119 477.06 316.119H491.68V316.129Z" fill="#121212"/>
<path d="M209.861 341.58L205.341 341.24L203.201 336.06L192.411 336.33C190.961 339.76 190.491 342.33 185.891 341.58C187.031 338.25 194.161 317.38 195.621 316.5C196.981 315.68 199.961 315.73 200.811 317.32L209.861 341.58ZM198.611 322.87C196.881 322.51 197.411 323.07 196.931 323.83C196.351 324.75 193.801 331.57 194.121 331.85H201.611L198.601 322.87H198.611Z" fill="#121212"/>
<path d="M143.151 326.609H56.9609V329.599H143.151V326.609Z" fill="#121212"/>
<path d="M833.461 329.599V326.609H918.531L919.651 327.739L918.531 329.599H833.461Z" fill="#121212"/>
<path d="M284.07 341.59C282.61 341.56 280.25 342.09 279.68 340.36L280.28 316.46C288.46 315.1 301.04 315.711 297.96 327.391C295.98 334.881 285.72 331.42 284.41 333.31L284.08 341.601L284.07 341.59ZM292.88 321.55C291.56 320.23 286.64 320.401 284.77 320.951C283.73 321.671 283.72 327.2 284.4 328.15C286.39 330.98 298.17 326.84 292.89 321.55H292.88Z" fill="#121212"/>
<path d="M739.771 320.62H732.271C732.301 319.17 731.771 316.8 733.501 316.23H750.531C752.261 316.8 751.741 319.16 751.761 320.62C751.251 321.15 745.271 319.57 744.261 321.74V341.58L739.761 340.46V320.62H739.771Z" fill="#121212"/>
<path d="M226.35 317.25L230.34 316.09C230.82 316.25 231.6 317.8 231.6 318V340.46C231.6 341.99 226.35 341.99 226.35 340.46V317.25Z" fill="#121212"/>
<path d="M261.579 328.109L260.88 332.279C258.39 332.869 246.359 333.869 249.939 328.839L250.71 328.119H261.579V328.109Z" fill="#121212"/>
</g>
<defs>
<clipPath id="clip0_502_356">
<rect width="999.18" height="342.23" fill="white"/>
</clipPath>
</defs>
</svg>
