<?xml version="1.0" encoding="UTF-8"?>
<svg id="Layer_2" data-name="Layer 2" xmlns="http://www.w3.org/2000/svg" viewBox="0 0 111.84 40.04">
  <defs>
    <style>
      .cls-1 {
        fill-rule: evenodd;
      }

      .cls-1, .cls-2 {
        fill: #fff;
      }

      .cls-2 {
        font-family: CenturyGothic, 'Century Gothic';
        font-size: 12px;
      }
    </style>
  </defs>
  <g id="Layer_1-2" data-name="Layer 1">
    <path class="cls-1" d="M42.43,12.98c0-7.17,5.82-12.98,12.99-12.98s12.99,5.81,12.99,12.98c0,4.65-2.44,8.72-6.11,11.02-.06-.13-.14-.26-.21-.39-.49-.84-1.12-1.74-1.9-2.69.73-.91,1.34-1.78,1.83-2.63.49-.86.76-1.68.83-2.46.07-.86-.15-1.56-.66-2.09-.49-.53-1.15-.8-1.99-.8-.8,0-1.61.25-2.43.76-.8.49-1.61,1.13-2.43,1.93-.8-.78-1.57-1.41-2.33-1.89-.75-.49-1.46-.73-2.13-.73-.89,0-1.59.27-2.1.8-.51.53-.76,1.29-.76,2.26,0,.78.23,1.56.7,2.36.49.8,1.1,1.63,1.83,2.49-.75.97-1.37,1.89-1.86,2.76-.06.11-.11.21-.16.31-3.66-2.3-6.1-6.37-6.1-11.01ZM53.73,23.11c0,.43-.35.78-.78.78s-.78-.35-.78-.78.35-.78.78-.78.78.35.78.78ZM58.67,23.11c0,.43-.35.78-.78.78s-.78-.35-.78-.78.35-.78.78-.78.78.35.78.78Z"/>
    <text class="cls-2" transform="translate(0 36.36)"><tspan x="0" y="0">PhotonX GrowthOS</tspan></text>
  </g>
</svg>